<?xml version="1.0" encoding="UTF-8"?>
<svg id="Layer_2" data-name="Layer 2" xmlns="http://www.w3.org/2000/svg" viewBox="0 0 12.36 16.47">
  <defs>
    <style>
      .cls-1 {
        fill: #fff;
        stroke-width: 0px;
      }
    </style>
  </defs>
  <g id="Layer_1-2" data-name="Layer 1">
    <path class="cls-1" d="m0,6.18v4.11c0,3.41,2.77,6.18,6.18,6.18,1.37,0,2.63-.46,3.66-1.22l.95.95c.36.36.94.36,1.3,0,.36-.36.36-.94,0-1.3l-.95-.95c.76-1.03,1.22-2.28,1.22-3.66v-4.11C12.36,2.77,9.59,0,6.18,0S0,2.77,0,6.18Zm4.12,4.85c0-1.14.92-2.06,2.06-2.06s2.06.92,2.06,2.06-.92,2.06-2.06,2.06-2.06-.92-2.06-2.06Zm0-5.62c0-1.14.92-2.06,2.06-2.06s2.06.92,2.06,2.06-.92,2.06-2.06,2.06-2.06-.92-2.06-2.06Z"/>
  </g>
</svg>